<svg width="18" height="18" viewBox="0 0 18 18" fill="none" xmlns="http://www.w3.org/2000/svg">
<g filter="url(#filter0_b_411_197)">
<path fill-rule="evenodd" clip-rule="evenodd" d="M9 18C13.9706 18 18 13.9706 18 9C18 4.02944 13.9706 0 9 0C4.02944 0 0 4.02944 0 9C0 13.9706 4.02944 18 9 18Z" fill="#E3E3E3"/>
</g>
<path fill-rule="evenodd" clip-rule="evenodd" d="M12.3753 5.77536C12.0918 5.49187 11.6321 5.49191 11.3486 5.77544L8.95403 8.17002L6.60528 5.82127C6.32179 5.53778 5.86213 5.53782 5.5786 5.82135C5.29506 6.10489 5.29502 6.56455 5.57851 6.84804L7.92726 9.19678L5.53269 11.5914C5.24915 11.8749 5.24912 12.3346 5.5326 12.618C5.81609 12.9015 6.27575 12.9015 6.55929 12.618L8.95386 10.2234L11.3026 12.5721C11.5861 12.8556 12.0458 12.8556 12.3293 12.572C12.6128 12.2885 12.6129 11.8288 12.3294 11.5454L9.98063 9.19662L12.3752 6.80204C12.6587 6.51851 12.6588 6.05885 12.3753 5.77536Z" fill="#4D4D4D"/>
<defs>
<filter id="filter0_b_411_197" x="-54.3656" y="-54.3656" width="126.731" height="126.731" filterUnits="userSpaceOnUse" color-interpolation-filters="sRGB">
<feFlood flood-opacity="0" result="BackgroundImageFix"/>
<feGaussianBlur in="BackgroundImageFix" stdDeviation="27.1828"/>
<feComposite in2="SourceAlpha" operator="in" result="effect1_backgroundBlur_411_197"/>
<feBlend mode="normal" in="SourceGraphic" in2="effect1_backgroundBlur_411_197" result="shape"/>
</filter>
</defs>
</svg>
