<svg width="26" height="26" viewBox="0 0 26 26" fill="none" xmlns="http://www.w3.org/2000/svg">
<g opacity="0.9">
<circle cx="13" cy="13" r="12.5" transform="matrix(0 1 1 0 0 0)" fill="#E3E3E3" stroke="#CDCDCD"/>
<path d="M12.7094 16.5097C12.8337 16.5097 12.9544 16.4863 13.0713 16.4397C13.1882 16.3931 13.2852 16.3309 13.3623 16.2532L17.6529 11.9626C17.8239 11.7916 17.9094 11.5739 17.9094 11.3097C17.9094 11.0454 17.8239 10.8277 17.6529 10.6567C17.4819 10.4857 17.2642 10.4002 16.9999 10.4002C16.7357 10.4002 16.518 10.4857 16.347 10.6567L12.7094 14.2944L9.0717 10.6567C8.90069 10.4857 8.68305 10.4002 8.41878 10.4002C8.1545 10.4002 7.93687 10.4857 7.76587 10.6567C7.59486 10.8277 7.50936 11.0454 7.50936 11.3097C7.50936 11.5739 7.59486 11.7916 7.76587 11.9626L12.0564 16.2532C12.1497 16.3464 12.2508 16.4127 12.3596 16.4518C12.4684 16.491 12.585 16.5103 12.7094 16.5097Z" fill="#4D4D4D"/>
</g>
</svg>
