<svg width="20" height="20" viewBox="0 0 20 20" fill="none" xmlns="http://www.w3.org/2000/svg">
<path d="M10 16.0588C15.9632 16.0588 20 11.4549 20 10.0259C20 8.60389 15.9559 4 10 4C4.11765 4 0 8.60389 0 10.0259C0 11.4549 4.11765 16.0588 10 16.0588ZM10 13.8765C7.75735 13.8765 5.97059 12.1237 5.95588 10.0329C5.94853 7.87882 7.75735 6.17523 10 6.17523C12.2353 6.17523 14.0441 7.87882 14.0441 10.0329C14.0441 12.1237 12.2353 13.8765 10 13.8765ZM10 11.462C10.8309 11.462 11.5074 10.8143 11.5074 10.0329C11.5074 9.2445 10.8309 8.58982 10 8.58982C9.16912 8.58982 8.49265 9.2445 8.49265 10.0329C8.49265 10.8143 9.16912 11.462 10 11.462Z" fill="#4D4D4D" fill-opacity="0.9"/>
</svg>
