<svg width="22" height="22" viewBox="0 0 22 22" fill="none" xmlns="http://www.w3.org/2000/svg">
<rect x="1" y="1" width="20" height="20" rx="3" fill="white"/>
<rect x="0.5" y="0.5" width="21" height="21" rx="3.5" stroke="black" stroke-opacity="0.2"/>
<path fill-rule="evenodd" clip-rule="evenodd" d="M14.889 5.17971C13.7378 4.41054 12.3845 4 11 4C10.0807 4 9.17049 4.18106 8.32121 4.53284C7.47194 4.88463 6.70026 5.40024 6.05025 6.05025C5.40024 6.70026 4.88463 7.47194 4.53284 8.32121C4.18106 9.17049 4 10.0807 4 11C4 12.3845 4.41054 13.7378 5.17971 14.889C5.94888 16.0401 7.04213 16.9373 8.32121 17.4672C9.6003 17.997 11.0078 18.1356 12.3656 17.8655C13.7235 17.5954 14.9708 16.9287 15.9497 15.9497C16.9287 14.9708 17.5954 13.7235 17.8655 12.3656C18.1356 11.0078 17.997 9.6003 17.4672 8.32121C16.9373 7.04213 16.0401 5.94888 14.889 5.17971ZM14.4612 16.1801C13.4367 16.8646 12.2322 17.23 11 17.23C9.3477 17.23 7.76307 16.5736 6.59472 15.4053C5.42637 14.2369 4.77 12.6523 4.77 11C4.77 9.76782 5.13538 8.56331 5.81994 7.5388C6.5045 6.51428 7.4775 5.71576 8.61588 5.24423C9.75426 4.7727 11.0069 4.64932 12.2154 4.88971C13.4239 5.13009 14.534 5.72344 15.4053 6.59472C16.2766 7.466 16.8699 8.57608 17.1103 9.78459C17.3507 10.9931 17.2273 12.2457 16.7558 13.3841C16.2842 14.5225 15.4857 15.4955 14.4612 16.1801Z" fill="#4D4D4D"/>
<path d="M13.3833 11C13.3833 11.5799 13.8684 12.05 14.4667 12.05C15.065 12.05 15.55 11.5799 15.55 11C15.55 10.4201 15.065 9.95 14.4667 9.95C13.8684 9.95 13.3833 10.4201 13.3833 11Z" fill="#4D4D4D"/>
<path d="M9.91667 11C9.91667 11.5799 10.4017 12.05 11 12.05C11.5983 12.05 12.0833 11.5799 12.0833 11C12.0833 10.4201 11.5983 9.95 11 9.95C10.4017 9.95 9.91667 10.4201 9.91667 11Z" fill="#4D4D4D"/>
<path d="M6.45 11C6.45 11.5799 6.93502 12.05 7.53333 12.05C8.13164 12.05 8.61667 11.5799 8.61667 11C8.61667 10.4201 8.13164 9.95 7.53333 9.95C6.93502 9.95 6.45 10.4201 6.45 11Z" fill="#4D4D4D"/>
</svg>
