<svg width="16" height="16" viewBox="0 0 16 16" fill="none" xmlns="http://www.w3.org/2000/svg">
<g clip-path="url(#clip0_8_2149)">
<path d="M8.24591 10.0532H8.24541C8.13389 10.0532 8.02582 10.0324 7.92056 9.9904C7.8145 9.94809 7.7296 9.89296 7.66349 9.82631L7.66321 9.82603L3.37262 5.53544C3.22221 5.38503 3.14541 5.1937 3.14541 4.95324C3.14541 4.71278 3.22221 4.52145 3.37262 4.37104C3.52304 4.22062 3.71436 4.14382 3.95483 4.14382C4.19529 4.14382 4.38662 4.22062 4.53703 4.37104L8.1747 8.00871L8.24541 8.07942L8.31612 8.00871L11.9538 4.37104C12.1042 4.22062 12.2955 4.14382 12.536 4.14382C12.7765 4.14382 12.9678 4.22062 13.1182 4.37104C13.2686 4.52145 13.3454 4.71278 13.3454 4.95324C13.3454 5.1937 13.2686 5.38503 13.1182 5.53544L8.82761 9.82603C8.74329 9.91036 8.65446 9.96779 8.56131 10.0013C8.46432 10.0362 8.35945 10.0538 8.24591 10.0532Z" fill="white" stroke="#4C4C4C" stroke-width="0.2"/>
</g>
<defs>
<clipPath id="clip0_8_2149">
<rect width="16" height="16" fill="white"/>
</clipPath>
</defs>
</svg>
