<svg
  width="131"
  height="32"
  viewBox="0 0 131 32"
  fill="none"
  xmlns="http://www.w3.org/2000/svg"
>
  <g clip-path="url(#clip0_1_98)">
    <path
      d="M19.0093 11.1713C18.5327 10.3883 17.7385 9.91843 16.8383 9.91843C15.9381 9.91843 15.1439 10.3883 14.6673 11.1713L10.4313 18.3752C9.95471 19.1582 9.95471 20.0457 10.4313 20.8809C10.9078 21.6639 11.7021 22.1338 12.6022 22.1338H21.0214C21.9216 22.1338 22.7158 21.6639 23.1924 20.8809C23.6689 20.0979 23.6689 19.2104 23.1924 18.3752L19.0093 11.1713ZM20.7037 19.4193C20.6508 19.5237 20.5449 19.5759 20.386 19.5759H16.7854H13.1847C13.0259 19.5759 12.92 19.5237 12.867 19.4193C12.814 19.3148 12.814 19.1582 12.867 19.0538L14.6673 15.9739L16.4676 12.894C16.5206 12.7896 16.6265 12.7374 16.7854 12.7374C16.9442 12.7374 17.0501 12.7896 17.1031 12.894L18.9034 15.9739L20.7037 19.0538C20.8096 19.2104 20.8096 19.3148 20.7037 19.4193Z"
      fill="#F87424"
    />
    <path
      d="M23.3513 8.71778C21.9745 6.36868 19.5918 5.01142 16.8383 5.01142C14.0849 5.01142 11.7021 6.36868 10.3254 8.71778L6.14228 15.8695C4.76556 18.2186 4.76556 20.9331 6.14228 23.3344C7.519 25.6835 9.90178 27.0408 12.6552 27.0408H21.0744C23.8278 27.0408 26.2106 25.6835 27.5873 23.3344C28.964 20.9853 28.964 18.2708 27.5873 15.8695L23.3513 8.71778ZM25.4163 22.0816C24.5162 23.6476 22.9276 24.5873 21.0744 24.5873H12.6552C10.8019 24.5873 9.21342 23.6998 8.31326 22.0816C7.4131 20.5155 7.4131 18.6884 8.31326 17.1224L12.4964 9.97064C13.3965 8.40457 14.985 7.46493 16.8383 7.46493C18.6916 7.46493 20.2801 8.35237 21.1803 9.97064L25.3634 17.1224C26.3165 18.6884 26.3165 20.5155 25.4163 22.0816Z"
      fill="#F87424"
    />
    <path
      d="M27.7462 6.21207C25.4163 2.2447 21.445 0 16.8383 0C12.2316 0 8.26031 2.2447 5.93048 6.21207L1.74737 13.3638C-0.582457 17.3312 -0.582457 21.8206 1.74737 25.7879C4.0772 29.7553 8.0485 32 12.6552 32H21.0744C25.6811 32 29.6524 29.7553 31.9822 25.7879C34.312 21.8206 34.312 17.3312 31.9822 13.3638L27.7462 6.21207ZM29.7583 24.5873C27.905 27.7194 24.728 29.5465 21.0214 29.5465H12.6552C8.94867 29.5465 5.77163 27.7194 3.91835 24.5873C2.06508 21.4551 2.06508 17.801 3.91835 14.6688L8.10145 7.51713C9.95473 4.38499 13.1318 2.55791 16.8383 2.55791C20.5449 2.55791 23.7219 4.38499 25.5752 7.51713L29.7583 14.6688C31.6116 17.801 31.6116 21.4029 29.7583 24.5873Z"
      fill="#F87424"
    />
    <path
      d="M91.1282 10.5449C90.228 10.5971 89.3279 10.8059 88.4277 11.0669C87.6335 11.2757 86.9451 11.5889 86.1508 11.8499C85.939 11.9543 85.8331 12.1631 85.8861 12.3719L86.5215 14.0946C86.6274 14.3034 86.8392 14.4078 87.051 14.3556C87.4746 14.199 87.9512 14.0424 88.3748 13.8858C89.3279 13.5726 90.3339 13.3116 91.2871 13.2594C92.3461 13.155 93.6698 13.2594 94.4641 14.0424C95.1525 14.721 95.2054 16.1827 95.2054 17.0701V17.279C92.452 17.0179 88.6925 16.6525 86.5744 18.6362C85.5684 19.5759 85.1448 20.8287 85.1448 22.186C85.1448 23.4388 85.5154 24.6395 86.4685 25.5269C87.9512 26.9886 90.3339 27.3018 92.399 27.1974C93.8816 27.1452 95.4702 26.8842 96.8998 26.4666L97.6411 26.2577C97.8 26.2055 97.9588 26.0489 97.9588 25.8923V17.1223C97.9588 15.3997 97.6941 13.5204 96.4233 12.2153C95.0466 10.7015 93.0344 10.3883 91.1282 10.5449ZM95.3113 24.0131C93.1933 24.4829 89.7515 24.7961 88.4277 23.5432C88.0041 23.1256 87.8982 22.6036 87.8982 22.0294C87.8982 21.4551 88.0041 20.8287 88.4807 20.4111C89.2749 19.6803 90.7575 19.5759 91.7636 19.5759C92.9285 19.5759 94.0405 19.6803 95.1525 19.7847H95.2584V24.0131H95.3113Z"
      fill="white"
    />
    <path
      d="M55.9159 5.01142H48.291C48.0792 5.01142 47.8674 5.16803 47.8674 5.42904V26.2577C47.8674 26.4666 48.0263 26.6754 48.291 26.6754H55.9159C58.0869 26.6754 60.099 26.0489 61.6346 24.4829C63.1702 22.9168 63.6467 20.9331 63.6467 18.7928V12.894C63.6467 10.8059 63.1172 8.76999 61.6346 7.20392C60.099 5.63785 58.0869 5.01142 55.9159 5.01142ZM60.9992 18.7928C60.9992 20.2023 60.7344 21.6117 59.7284 22.6558C58.7223 23.6998 57.3456 24.0653 55.9159 24.0653H50.5679V7.62154H55.9159C57.3456 7.62154 58.7223 7.98695 59.7284 9.031C60.7344 10.075 60.9992 11.4845 60.9992 12.894V18.7928Z"
      fill="white"
    />
    <path
      d="M79.426 15.0865C79.5319 14.9821 79.6908 14.8777 79.7967 14.7732C80.9087 13.7292 81.4911 12.2675 81.4911 10.7537C81.4911 6.8907 79.0024 5.01142 75.137 5.01142H67.5651C67.3533 5.01142 67.1415 5.16803 67.1415 5.42904V26.2577C67.1415 26.4666 67.3003 26.6754 67.5651 26.6754H75.137C79.2142 26.6754 82.4972 24.6395 82.4442 20.3067C82.4442 17.9576 81.1734 16.1305 79.426 15.0865ZM69.789 7.62154H75.137C77.4669 7.62154 78.8436 8.35237 78.7906 10.7537C78.7906 11.5367 78.4729 12.3197 77.8905 12.894C77.0962 13.677 75.9842 13.938 74.9252 13.938H69.7361V7.62154H69.789ZM75.137 24.0131H69.789V16.5481H74.9782C77.308 16.5481 79.7967 17.7488 79.7967 20.3067C79.7967 23.1256 77.6787 24.0131 75.137 24.0131Z"
      fill="white"
    />
    <path
      d="M42.996 5.01142H41.1427C40.9309 5.01142 40.7191 5.16803 40.7191 5.42904V26.2577C40.7191 26.4666 40.878 26.6754 41.1427 26.6754H42.996C43.2078 26.6754 43.4196 26.5188 43.4196 26.2577V5.42904C43.4196 5.16803 43.2607 5.01142 42.996 5.01142Z"
      fill="white"
    />
    <path
      d="M112.256 11.9021C109.555 9.76183 105.478 10.4927 102.46 11.4845L101.718 11.7455C101.56 11.7977 101.454 11.9543 101.454 12.1109C101.454 16.8091 101.454 21.5595 101.454 26.2578C101.454 26.4666 101.665 26.6754 101.877 26.6754H103.73C103.942 26.6754 104.154 26.5188 104.154 26.2578C104.154 22.0816 104.154 17.9054 104.154 13.7292C106.219 13.155 109.026 12.6852 110.667 13.9902C111.779 14.8777 111.991 16.3915 111.991 17.6966C111.991 20.5677 111.991 23.4388 111.991 26.2578C111.991 26.4666 112.15 26.6754 112.414 26.6754H114.268C114.479 26.6754 114.691 26.5188 114.691 26.2578C114.691 23.3866 114.691 20.5677 114.691 17.6966C114.585 15.5563 114.056 13.3116 112.256 11.9021Z"
      fill="white"
    />
    <path
      d="M130.894 25.9967C128.617 23.2822 126.34 20.5677 124.116 17.801L130.418 11.6411C130.523 11.5367 130.576 11.3279 130.523 11.2235C130.47 11.0669 130.312 10.9625 130.153 10.9625H127.558C127.452 10.9625 127.346 11.0147 127.293 11.0669C125.122 13.2072 122.951 15.2953 120.781 17.4356V5.42904C120.781 5.22023 120.622 5.01142 120.357 5.01142H118.398C118.186 5.01142 117.974 5.16803 117.974 5.42904V26.2055C117.974 26.4144 118.186 26.6232 118.398 26.6232H120.251C120.463 26.6232 120.675 26.4666 120.675 26.2055V21.0897L122.21 19.6281C124.116 21.925 125.97 24.1697 127.876 26.4666C127.982 26.571 128.088 26.6232 128.194 26.6232H130.576C130.735 26.6232 130.894 26.5188 130.947 26.4144C131 26.2578 131 26.1011 130.894 25.9967Z"
      fill="white"
    />
  </g>
  <defs>
    <clipPath id="clip0_1_98">
      <rect width="131" height="32" fill="white" />
    </clipPath>
  </defs>
</svg>
