<svg width="18" height="14" viewBox="0 0 18 14" fill="none" xmlns="http://www.w3.org/2000/svg">
<path fill-rule="evenodd" clip-rule="evenodd" d="M3.1199 0.699997H14.8799C15.4687 0.699997 16.0333 0.933889 16.4497 1.35022C16.866 1.76655 17.0999 2.33122 17.0999 2.92V11.32C17.0999 11.9088 16.866 12.4734 16.4497 12.8898C16.0333 13.3061 15.4687 13.54 14.8799 13.54H3.1199C2.53112 13.54 1.96646 13.3061 1.55013 12.8898C1.13379 12.4734 0.899902 11.9088 0.899902 11.32V2.92C0.899902 2.33122 1.13379 1.76655 1.55013 1.35022C1.96646 0.933889 2.53112 0.699997 3.1199 0.699997ZM8.9999 7.37061L16.0199 3.08841V2.92C16.0199 2.61765 15.8998 2.32769 15.686 2.1139C15.4722 1.9001 15.1823 1.78 14.8799 1.78H3.1199C2.81756 1.78 2.52759 1.9001 2.3138 2.1139C2.10001 2.32769 1.9799 2.61765 1.9799 2.92V3.08841L8.9999 7.37061ZM8.71598 8.41584L1.9799 4.30035V11.32C1.9799 11.6223 2.10001 11.9123 2.3138 12.1261C2.52759 12.3399 2.81756 12.46 3.1199 12.46H14.8799C15.1823 12.46 15.4722 12.3399 15.686 12.1261C15.8998 11.9123 16.0199 11.6223 16.0199 11.32V4.30183L9.2505 8.41568C9.16905 8.46211 9.07689 8.48654 8.9831 8.48654C8.88942 8.48654 8.79737 8.46217 8.71598 8.41584Z" fill="white"/>
</svg>
