<svg width="18" height="18" viewBox="0 0 18 18" fill="none" xmlns="http://www.w3.org/2000/svg">
<path fill-rule="evenodd" clip-rule="evenodd" d="M14.4465 13.7556C15.1766 13.7556 15.6363 13.3051 15.6363 12.6439C15.6363 11.8519 15.0008 11.1907 14.3856 10.5731C13.8947 10.0887 13.7851 9.04345 13.6775 8.01675L13.6758 8.00093C13.5474 5.41425 12.7902 3.55417 11.0732 2.8857C10.7757 1.92659 10.0186 1.2 9.01808 1.2C8.01758 1.2 7.26045 1.92659 6.963 2.8857C5.24592 3.55417 4.48879 5.41425 4.36034 8.00093L4.35869 8.01675C4.25107 9.04345 4.1415 10.0887 3.65053 10.5731C3.0286 11.1907 2.3999 11.8519 2.3999 12.6439C2.3999 13.3051 2.85959 13.7556 3.58969 13.7556H14.4465ZM11.2287 14.7873C11.2273 14.8034 11.2259 14.8195 11.2242 14.8356C11.1854 15.2102 11.0502 15.565 10.8383 15.8673C10.4495 16.4219 9.80251 16.8 9.01808 16.8C8.23366 16.8 7.58388 16.4219 7.19489 15.8673C6.98285 15.565 6.8483 15.2102 6.81168 14.8356C6.81011 14.8195 6.80872 14.8034 6.80752 14.7873H11.2287ZM4.41034 11.3406C4.88457 10.872 5.09007 10.2316 5.20346 9.72904C5.31886 9.21749 5.37852 8.64773 5.42969 8.15907C5.43129 8.14381 5.43288 8.12863 5.43446 8.11353L5.43755 8.08407L5.43902 8.05449C5.56324 5.55277 6.27601 4.3121 7.35481 3.89212L7.84023 3.70314L7.99453 3.20561C8.19292 2.56592 8.61636 2.28 9.01808 2.28C9.41981 2.28 9.84325 2.56592 10.0416 3.20561L10.1959 3.70314L10.6814 3.89212C11.7602 4.3121 12.4729 5.55277 12.5972 8.05449L12.5986 8.08407L12.6017 8.11353C12.6033 8.12864 12.6049 8.14383 12.6065 8.1591C12.6576 8.64775 12.7173 9.2175 12.8327 9.72904C12.9459 10.2307 13.1509 10.8696 13.6232 11.338C13.9373 11.6534 14.1809 11.9075 14.3529 12.1567C14.5197 12.3984 14.5563 12.548 14.5563 12.6439C14.5563 12.6517 14.556 12.6585 14.5556 12.6644C14.5341 12.6697 14.4987 12.6756 14.4465 12.6756H3.58969C3.5375 12.6756 3.50204 12.6697 3.48057 12.6644C3.48017 12.6585 3.4799 12.6517 3.4799 12.6439C3.4799 12.5452 3.51696 12.3948 3.68179 12.1552C3.85197 11.9078 4.09547 11.6533 4.41034 11.3406Z" fill="white"/>
</svg>
