<svg width="12" height="12" viewBox="0 0 12 12" fill="none" xmlns="http://www.w3.org/2000/svg">
<path d="M4.85429 9.70857C5.90216 9.70857 6.88059 9.3677 7.67596 8.79958L10.6681 11.7917C10.8069 11.9306 10.99 12 11.1794 12C11.5897 12 11.8864 11.6844 11.8864 11.2804C11.8864 11.091 11.8233 10.9143 11.6844 10.7754L8.7112 7.7959C9.33614 6.97528 9.70857 5.95897 9.70857 4.85429C9.70857 2.18411 7.52446 0 4.85429 0C2.1778 0 0 2.18411 0 4.85429C0 7.52446 2.1778 9.70857 4.85429 9.70857ZM4.85429 8.6607C2.76486 8.6607 1.04787 6.9374 1.04787 4.85429C1.04787 2.77117 2.76486 1.04787 4.85429 1.04787C6.9374 1.04787 8.6607 2.77117 8.6607 4.85429C8.6607 6.9374 6.9374 8.6607 4.85429 8.6607Z" fill="white"/>
</svg>
