<svg width="18" height="18" viewBox="0 0 18 18" fill="none" xmlns="http://www.w3.org/2000/svg">
<path fill-rule="evenodd" clip-rule="evenodd" d="M8.93987 5.45976C8.25162 5.45978 7.57882 5.66387 7.00655 6.04625C6.43427 6.42864 5.98823 6.97214 5.72484 7.60802C5.46144 8.24391 5.39253 8.94362 5.52681 9.61868C5.66108 10.2937 5.99252 10.9138 6.47921 11.4005C6.96589 11.8872 7.58597 12.2186 8.26102 12.3529C8.93608 12.4872 9.63579 12.4183 10.2717 12.1549C10.9076 11.8915 11.4511 11.4454 11.8335 10.8731C12.2158 10.3009 12.4199 9.62813 12.4199 8.9399C12.4189 8.01723 12.0519 7.13265 11.3995 6.48023C10.7471 5.82782 9.86252 5.46083 8.93987 5.45976ZM10.644 10.6438C10.192 11.0957 9.57923 11.35 8.94007 11.3507C8.46324 11.3507 7.99698 11.2093 7.60051 10.9444C7.20404 10.6794 6.89502 10.3029 6.71255 9.86238C6.53007 9.42184 6.48233 8.93709 6.57535 8.46942C6.66838 8.00175 6.898 7.57216 7.23517 7.23499C7.57234 6.89782 8.00192 6.6682 8.46959 6.57518C8.93726 6.48215 9.42202 6.5299 9.86255 6.71237C10.3031 6.89485 10.6796 7.20386 10.9445 7.60033C11.2094 7.9968 11.3508 8.46306 11.3508 8.9399C11.3501 9.57905 11.0959 10.1918 10.644 10.6438Z" fill="white"/>
<path fill-rule="evenodd" clip-rule="evenodd" d="M16.5702 11.2198L15.4391 10.3397L15.4475 10.3022C15.6407 9.44366 15.6407 8.55633 15.4475 7.69776L15.4391 7.66032L16.5702 6.7802C16.686 6.69056 16.7636 6.5654 16.79 6.42772C16.8163 6.29009 16.7901 6.14789 16.7154 6.0264L15.5853 4.17634C15.5113 4.05437 15.3932 3.96039 15.2516 3.91238C15.1099 3.86436 14.9547 3.86559 14.814 3.91584L13.4448 4.40071L13.4182 4.37804C12.7286 3.78911 11.9148 3.34448 11.0302 3.07351L10.9948 3.06266L10.7539 1.69742C10.73 1.55933 10.6546 1.43289 10.5405 1.34148C10.4262 1.25 10.2807 1.19961 10.13 1.2L7.86988 1.2C7.71916 1.19962 7.57352 1.25001 7.45929 1.34147C7.34513 1.43288 7.26982 1.55913 7.24587 1.69722L7.0051 3.06266L6.9697 3.07351C6.08507 3.34447 5.27128 3.7891 4.58166 4.37804L4.55511 4.40071L3.18591 3.91583C3.04517 3.86561 2.88984 3.86435 2.74823 3.91238C2.60666 3.96039 2.48862 4.05421 2.41459 4.17616L1.28452 6.02636C1.20989 6.14786 1.18358 6.29019 1.20997 6.42781C1.23637 6.5655 1.3139 6.69056 1.42967 6.78017L2.56081 7.66032L2.55239 7.69776C2.3592 8.55633 2.3592 9.44366 2.55239 10.3022L2.56081 10.3397L1.42968 11.2198C1.31393 11.3094 1.23631 11.4346 1.20993 11.5723C1.18356 11.7099 1.2098 11.8521 1.28444 11.9736L2.41454 13.8237C2.48857 13.9456 2.60672 14.0396 2.74832 14.0876C2.88995 14.1356 3.04516 14.1344 3.1859 14.0842L4.55515 13.5993L4.58169 13.622C5.27131 14.2109 6.0851 14.6555 6.96973 14.9265L7.00514 14.9373L7.24588 16.3026C7.26981 16.4407 7.34515 16.5671 7.4593 16.6585C7.57352 16.75 7.71901 16.8004 7.86973 16.8L10.1299 16.8C10.2806 16.8004 10.4262 16.75 10.5405 16.6585C10.6546 16.5671 10.7299 16.4409 10.7539 16.3028L10.9947 14.9373L11.0301 14.9265C11.9147 14.6555 12.7285 14.2109 13.4181 13.622L13.4447 13.5993L14.8138 14.0842C14.9546 14.1344 15.1099 14.1356 15.2515 14.0876C15.3931 14.0396 15.5111 13.9458 15.5851 13.8238L16.7152 11.9736C16.7898 11.8522 16.8162 11.7099 16.7898 11.5723C16.7635 11.4346 16.6859 11.3094 16.5702 11.2198ZM14.8788 13.1162L13.2006 12.5219L12.9751 12.7365C12.2728 13.4056 11.3947 13.8851 10.4315 14.1261L10.1231 14.203L9.82847 15.8729H8.17154L7.87703 14.203L7.56863 14.1261C6.60548 13.8852 5.72735 13.4056 5.02507 12.7365L4.79953 12.5219L3.121 13.1162L2.28971 11.755L3.67324 10.6784L3.59093 10.3911C3.33054 9.48007 3.33053 8.51996 3.59093 7.60894L3.67324 7.32159L2.28971 6.24502L3.12118 4.88377L4.79942 5.47807L5.02494 5.26347C5.72722 4.59441 6.60531 4.11485 7.56847 3.8739L7.87693 3.79704L8.1714 2.12713H9.82847L10.123 3.79704L10.4314 3.87388C11.3945 4.11483 12.2727 4.5944 12.9749 5.26345L13.2005 5.47807L14.8787 4.88377L15.7102 6.24499L14.3267 7.32159L14.409 7.60891C14.6694 8.51993 14.6694 9.48003 14.409 10.391L14.3267 10.6784L15.7102 11.755L14.8788 13.1162Z" fill="white"/>
</svg>
