<svg width="34" height="32" viewBox="0 0 34 32" fill="none" xmlns="http://www.w3.org/2000/svg">
<path d="M19.0093 11.1713C18.5327 10.3883 17.7385 9.91843 16.8383 9.91843C15.9382 9.91843 15.1439 10.3883 14.6673 11.1713L10.4313 18.3752C9.95473 19.1582 9.95473 20.0457 10.4313 20.8809C10.9078 21.6639 11.7021 22.1338 12.6023 22.1338H21.0214C21.9216 22.1338 22.7158 21.6639 23.1924 20.8809C23.669 20.0979 23.669 19.2104 23.1924 18.3752L19.0093 11.1713ZM20.7037 19.4193C20.6508 19.5237 20.5449 19.5759 20.386 19.5759H16.7854H13.1847C13.0259 19.5759 12.92 19.5237 12.867 19.4193C12.8141 19.3148 12.8141 19.1582 12.867 19.0538L14.6673 15.9739L16.4677 12.894C16.5206 12.7896 16.6265 12.7374 16.7854 12.7374C16.9442 12.7374 17.0501 12.7896 17.1031 12.894L18.9034 15.9739L20.7037 19.0538C20.8096 19.2104 20.8096 19.3148 20.7037 19.4193Z" fill="#F87424"/>
<path d="M23.3513 8.71778C21.9745 6.36868 19.5918 5.01142 16.8383 5.01142C14.0849 5.01142 11.7021 6.36868 10.3254 8.71778L6.14228 15.8695C4.76556 18.2186 4.76556 20.9331 6.14228 23.3344C7.519 25.6835 9.90178 27.0408 12.6552 27.0408H21.0744C23.8278 27.0408 26.2106 25.6835 27.5873 23.3344C28.964 20.9853 28.964 18.2708 27.5873 15.8695L23.3513 8.71778ZM25.4163 22.0816C24.5162 23.6476 22.9276 24.5873 21.0744 24.5873H12.6552C10.8019 24.5873 9.21342 23.6998 8.31326 22.0816C7.4131 20.5155 7.4131 18.6884 8.31326 17.1224L12.4964 9.97064C13.3965 8.40457 14.985 7.46493 16.8383 7.46493C18.6916 7.46493 20.2801 8.35237 21.1803 9.97064L25.3634 17.1224C26.3165 18.6884 26.3165 20.5155 25.4163 22.0816Z" fill="#F87424"/>
<path d="M27.7462 6.21207C25.4163 2.2447 21.445 0 16.8383 0C12.2316 0 8.26031 2.2447 5.93048 6.21207L1.74737 13.3638C-0.582457 17.3312 -0.582457 21.8206 1.74737 25.7879C4.0772 29.7553 8.0485 32 12.6552 32H21.0744C25.6811 32 29.6524 29.7553 31.9822 25.7879C34.312 21.8206 34.312 17.3312 31.9822 13.3638L27.7462 6.21207ZM29.7583 24.5873C27.905 27.7194 24.728 29.5465 21.0214 29.5465H12.6552C8.94867 29.5465 5.77163 27.7194 3.91835 24.5873C2.06508 21.4551 2.06508 17.801 3.91835 14.6688L8.10145 7.51713C9.95473 4.38499 13.1318 2.55791 16.8383 2.55791C20.5449 2.55791 23.7219 4.38499 25.5752 7.51713L29.7583 14.6688C31.6116 17.801 31.6116 21.4029 29.7583 24.5873Z" fill="#F87424"/>
</svg>
